<svg xmlns="http://www.w3.org/2000/svg" viewBox="0 0 1584 396" width="1584" height="396">
  <!-- Background gradient -->
  <defs>
    <linearGradient id="grad1" x1="0%" y1="100%" x2="0%" y2="0%">
      <stop offset="0%" style="stop-color:#0ba360;stop-opacity:1" />
      <stop offset="100%" style="stop-color:#3cba92;stop-opacity:1" />
    </linearGradient>
  </defs>
  
  <!-- Main background -->
  <rect width="1584" height="396" fill="url(#grad1)" />
  
  <!-- Organic shapes -->
  <path d="M0,250 Q150,200 300,250 T600,250 T900,250 T1200,250 T1584,250 V396 H0 Z" fill="rgba(255,255,255,0.1)" />
  <path d="M0,300 Q150,280 300,300 T600,300 T900,300 T1200,300 T1584,300 V396 H0 Z" fill="rgba(255,255,255,0.15)" />
  
  <!-- Leaf-like decorative elements -->
  <g fill="rgba(255,255,255,0.2)">
    <path d="M100,80 Q140,40 180,80 T260,80 C220,120 180,120 140,120 C100,120 60,120 100,80 Z" />
    <path d="M1400,150 Q1440,110 1480,150 T1560,150 C1520,190 1480,190 1440,190 C1400,190 1360,190 1400,150 Z" />
    <path d="M800,50 Q830,20 860,50 T920,50 C890,80 860,80 830,80 C800,80 770,80 800,50 Z" />
  </g>
  
  <!-- Text placeholders -->
  <rect x="80" y="130" width="500" height="70" rx="5" fill="none" stroke="none" id="title-placeholder" />
  <rect x="80" y="220" width="350" height="40" rx="5" fill="none" stroke="none" id="subtitle-placeholder" />
</svg>
